<?xml version="1.0" encoding="utf-8"?>
<!-- Generator: Adobe Illustrator 23.1.0, SVG Export Plug-In . SVG Version: 6.00 Build 0)  -->
<svg version="1.1" id="Layer_1" xmlns="http://www.w3.org/2000/svg" xmlns:xlink="http://www.w3.org/1999/xlink" x="0px" y="0px"
	 viewBox="0 0 800 800" style="enable-background:new 0 0 800 800;" xml:space="preserve">
<style type="text/css">
	.st0{fill:#FFFFFF;}
</style>
<path class="st0" d="M123.9,408.3c-9,0-17.5-5.8-20.3-14.9c-23-71.7-26.3-198.5,23-255.9c-11-41.6-4.8-97.8,15.3-128
	c4.2-6.2,11.1-9.8,18.8-9.5c57.3,2.5,94.7,26.4,127.5,48.3c46.7-12.2,92.2-16.4,146.1-13.4c13.3,0.8,26.4,3.7,38,6.4
	c11,2.5,22.2,5.2,28.8,4.5c6-0.6,16.6-7.8,25.1-13.8c8-5.5,16.4-11.1,25.2-15c25-11,47.5-15.9,77.8-17c11.7-0.3,21.7,8.8,22.2,20.6
	s-8.8,21.7-20.6,22c-25.2,1-42,4.5-62.2,13.5c-5.2,2.4-11.6,6.6-18.3,11.3c-13.3,9-28.4,19.4-45.3,20.9c-13.6,1.2-27.7-1.9-42.5-5.5
	c-10.3-2.3-21.1-4.8-30.6-5.5c-52.6-3-96.4,1.6-141.7,14.5c-6,1.7-12.4,0.8-17.7-2.8l-5.3-3.6c-28.6-18.9-55.6-37-95.1-41.9
	c-9.9,25.2-11.1,66.9-1.3,91.6c3.5,8.4,0.9,18.3-5.9,24.1c-38.6,32.8-43.5,148.9-20.5,221c3.6,11.3-2.6,23.3-13.9,26.9
	C128.1,408,125.9,408.3,123.9,408.3L123.9,408.3z M286.4,619.2c-1.6,0-3.1-0.2-4.7-0.5c-11.6-2.5-18.8-13.9-16.3-25.5l1.4-6.1
	c6.6-29.7,12.6-53.6,19.9-71.4c-87.7-18.3-151.6-60-181.9-119.1c-5.3-10.5-1.3-23.4,9.2-28.8c10.5-5.3,23.5-1.3,28.8,9.2
	c27.4,53.3,91.7,89.4,181.4,101.7c8.6,1.2,15.6,7.5,17.8,15.8c2.2,8.4-0.9,17.4-8,22.5c-4.5,4.1-12.8,21.1-25.5,79.1l-1.4,6.3
	C305,612.4,296.2,619.3,286.4,619.2L286.4,619.2z M247,775.6c-1.4,0-2.7-0.2-4.1-0.5c-11.6-2.4-19.2-13.1-16.9-24.7
	c3.9-19.9,17.8-28.1,26.1-33c5.6-3.3,7.4-4.5,8.3-6.7c4.9-10.3,3.6-37,2.5-58.4c-0.5-9.1-0.9-18.3-1.1-27.2
	c-49.5,8.6-103.3,11.3-131.7-35.8c-5.6-9.4-9.2-18.9-12.5-27.5c-3.8-9.7-6.9-18.1-12-24.4c-7.5-9.1-6.1-22.5,3-30s22.5-6.3,30,3
	c9.5,11.7,14.5,24.9,18.9,36.4c2.8,7.5,5.5,14.5,9.1,20.5c15.3,25.3,48.8,23.8,113.1,10.8c6.7-1.4,13.6,0.6,18.6,5.1
	c5,4.7,7.5,11.4,6.7,18.1c-1.6,13.6-0.6,31.4,0.1,48.6c1.6,30.1,3,58.6-6.5,78.8c-6.9,14.5-18,21.1-25.3,25.3c-2,1.2-5.2,3-5.8,3.7
	C266.1,768.2,257.2,775.6,247,775.6L247,775.6z M557.7,771.5c-7,0-13.8-3.4-18-9.7c-1.7-2.8-4.2-4.5-8.6-7.5
	c-6.9-4.8-16.3-11.4-23.3-25c-12.7-24.8-10.6-60.9-8.6-99c1.2-23.4,2.5-47.6,0-66.7c-2.2-16.1-7.8-23.3-15.6-33.3
	c-5-6.5-10.8-13.9-15.3-23.6c-3-6.4-2.5-13.8,0.9-19.9c3.6-6.1,9.8-10,16.9-10.5c80.1-6,143.5-43.8,173.9-103.6
	c5.3-10.5,18.1-14.7,28.8-9.4c10.5,5.3,14.7,18.1,9.4,28.8c-32.5,64.2-94.5,107.5-173,122.3c7,10.3,13.9,23.5,16.6,43.6
	c3.1,23,1.7,49.2,0.3,74.5c-1.6,29.4-3.3,62.6,4.1,77.3c1.9,3.8,4.2,5.5,9.5,9.2c5.8,3.9,13.6,9.4,20,19.2s3.6,23.1-6.3,29.5
	C565.7,770.5,561.7,771.6,557.7,771.5L557.7,771.5z M679,403.9c-1.9,0-3.9-0.3-5.8-0.8c-11.4-3.3-18-15-14.7-26.4
	c23.6-83,7.5-190.8-33.8-225.9c-6.7-5.8-9.2-15-6.3-23.3c10-28.6,3.3-71.5-8.1-97.5c-4.7-10.8,0.2-23.5,11-28.1
	c10.8-4.7,23.4,0.1,28.1,10.9c13.1,29.7,21.7,76.4,13.1,115.3c51,56.3,61,176.3,37,260.3C696.9,397.9,688.4,404,679,403.9L679,403.9
	z M487.2,800.3c-3.9,0-8-1.1-11.5-3.4c-3.9-2.5-15.6-10-37.4-43.8c-9.8-15.3-17-91.5-21.4-226.9c-0.3-11.7,8.9-21.7,20.6-22
	c11.7-0.3,21.7,8.9,22,20.6c2.8,88.6,9.4,189.1,15.3,206.3c15.9,24.7,23.4,29.7,23.8,29.9c9.8,6.4,12.8,19.5,6.4,29.5
	C501.1,796.9,494.2,800.4,487.2,800.3L487.2,800.3z M325.1,800.3c-7,0-13.9-3.4-18-9.8c-6.4-9.8-3.4-23.1,6.4-29.5
	c0.3-0.1,7.8-5.1,23.8-29.8c5.9-17,12.4-117.6,15.3-206.3c0.3-11.7,10.3-21.1,22-20.6c11.7,0.3,21.1,10.3,20.6,22
	c-4.4,135.3-11.6,211.7-21.4,226.9c-21.7,33.6-33.5,41.3-37.4,43.8C333.1,799.2,329,800.3,325.1,800.3L325.1,800.3z"/>
</svg>
