<?xml version="1.0" encoding="utf-8"?>
<!-- Generator: Adobe Illustrator 23.1.0, SVG Export Plug-In . SVG Version: 6.00 Build 0)  -->
<svg version="1.1" id="Layer_1" xmlns="http://www.w3.org/2000/svg" xmlns:xlink="http://www.w3.org/1999/xlink" x="0px" y="0px"
	 viewBox="0 0 800 800" style="enable-background:new 0 0 800 800;" xml:space="preserve">
<style type="text/css">
	.st0{fill:#FFFFFF;}
</style>
<path class="st0" d="M779.5,783.2H617c-11.5,0-20.8-9.3-20.8-20.8V500.7c0-89.8-46.3-89.8-61.6-89.8c-41.1,0-58.6,32.5-64.2,46.5
	c-2.7,6.3-3.9,17-3.9,32v273.2c0,11.5-9.3,20.8-20.8,20.8H283c-5.5,0-10.9-2.2-14.8-6.2s-6.1-9.3-6-14.8c0-4.4,2.2-443.3,0-488.2
	c-0.3-5.7,1.7-11.2,5.7-15.3c3.9-4.1,9.3-6.5,15.1-6.5h162.7c11.5,0,20.8,9.3,20.8,20.8v12.3c27.4-24.4,66.9-44.6,125.8-44.6
	c130.2,0,208,90.1,208,240.9v280.5C800.3,773.8,791,783.1,779.5,783.2L779.5,783.2L779.5,783.2z M637.8,741.6h121.1V481.9
	c0-126.8-60.6-199.4-166.5-199.4c-70.7,0-105,35.3-126.6,67.5c-2.5,8.5-10.6,14.8-20,14.8h-1.1c-7.6,0-14.5-4.1-18.1-10.7
	c-2.8-5.2-3.5-11.2-1.6-16.7v-43.6H304.2c1.1,86.8,0,367.5-0.3,447.6h120.9V489.1c0-20.9,2.2-36,6.9-47.5
	c18.3-45.2,56.7-72.5,102.7-72.5c65.5,0,103.2,47.9,103.2,131.4v241.1L637.8,741.6L637.8,741.6z M193.1,783.2H30.4
	c-11.5,0-20.8-9.3-20.8-20.8V273.3c0-11.5,9.3-20.8,20.8-20.8h162.7c11.5,0,20.8,9.3,20.8,20.8v489.1
	C213.8,773.9,204.6,783.2,193.1,783.2z M51.2,741.6h121.1V294H51.2V741.6z M111.8,227.3h-1.1C46.6,227.3,0,182.9,0,121.8
	C0,60.8,47.4,16.4,112.9,16.4c64.4,0,110.4,43.1,111.6,104.9C224.6,182.9,177.2,227.3,111.8,227.3L111.8,227.3z M112.9,58.1
	c-42.7,0-71.4,25.7-71.4,63.8c0,37.5,28.3,63.8,69.1,63.8h1.1c42.5,0,71.2-25.7,71.2-63.8C182.1,83.3,154.6,58.1,112.9,58.1
	L112.9,58.1z"/>
</svg>
