<?xml version="1.0" encoding="utf-8"?>
<!-- Generator: Adobe Illustrator 23.1.0, SVG Export Plug-In . SVG Version: 6.00 Build 0)  -->
<svg version="1.1" id="Layer_1" xmlns="http://www.w3.org/2000/svg" xmlns:xlink="http://www.w3.org/1999/xlink" x="0px" y="0px"
	 viewBox="0 0 800 800" style="enable-background:new 0 0 800 800;" xml:space="preserve">
<style type="text/css">
	.st0{fill:#FFFFFF;}
</style>
<path class="st0" d="M552.3,281.3c-54.7-58.6-100-68-143.7-68.8H407c-98.4,0-191.4,81.3-191.4,193.8c0,118,106.3,186.7,190.6,186.7
	h0.8c46.9,0,103.9-8.6,153.9-80.5H368.7V313.3l408.6,1.6c3.9,20.3,11,71.1,11,97.6c0,225.8-151.6,386.7-385.2,386.7
	C181.3,799.2,0.8,622.7,0.8,402.4S181.3,6.3,403.1,6.3c108.6,0,225,43,298.5,140.6L552.3,281.3z M406.3,353.9v120.3h205.5
	c-9.4,50.8-63.3,152.4-205.5,152.4C282,626.6,182,525,182,403.9c0-121.9,102.3-224.2,224.2-224.2c71.1,0,118.8,31.3,144.5,56.3
	l98.4-93c-62.5-58.6-144.5-93.7-243-93.7c-200,0-362.5,157-362.5,354.7c0,196.1,162.5,353.9,362.5,353.9
	c211,0,347.7-144.5,347.7-345.3c0-22.6-1.6-40.6-4.7-58.6H406.3L406.3,353.9z"/>
</svg>
